<svg xmlns="http://www.w3.org/2000/svg" viewBox="0 0 80 64" fill="none" stroke="#B8923F" stroke-width="1.6" stroke-linecap="round" stroke-linejoin="round" aria-label="RS Yoga lotus mark">
  
  <path d="M40 56 C 22 52, 10 38, 12 22 C 22 26, 32 36, 40 56 Z"></path>
  
  <path d="M40 56 C 58 52, 70 38, 68 22 C 58 26, 48 36, 40 56 Z"></path>
  
  <path d="M40 56 C 28 48, 22 32, 26 16 C 34 24, 38 38, 40 56 Z"></path>
  
  <path d="M40 56 C 52 48, 58 32, 54 16 C 46 24, 42 38, 40 56 Z"></path>
  
  <path d="M40 56 C 36 44, 36 28, 40 14 C 44 28, 44 44, 40 56 Z"></path>
</svg>